<?xml version="1.0" encoding="UTF-8"?>
<svg xmlns="http://www.w3.org/2000/svg" viewBox="0 0 24 24" fill="#ff6b35">
    <path d="M12 3C7.58 3 4 4.79 4 7s3.58 4 8 4 8-1.79 8-4-3.58-4-8-4zM4 9v3c0 2.21 3.58 4 8 4s8-1.79 8-4V9c0 2.21-3.58 4-8 4s-8-1.79-8-4zm0 5v3c0 2.21 3.58 4 8 4s8-1.79 8-4v-3c0 2.21-3.58 4-8 4s-8-1.79-8-4z"/>
    <!-- Database highlights -->
    <ellipse cx="12" cy="7" rx="6" ry="2" fill="none" stroke="#ffffff" stroke-width="0.5" opacity="0.6"/>
    <ellipse cx="12" cy="12" rx="6" ry="2" fill="none" stroke="#ffffff" stroke-width="0.5" opacity="0.6"/>
    <ellipse cx="12" cy="17" rx="6" ry="2" fill="none" stroke="#ffffff" stroke-width="0.5" opacity="0.6"/>
</svg> 